<svg xmlns="http://www.w3.org/2000/svg" xmlns:svg="http://www.w3.org/2000/svg" id="svg2" width="200" height="18" version="1.1"><defs id="defs4"><marker id="DotL" orient="auto" refX="0" refY="0" style="overflow:visible"><path id="path3836" d="M -2.5,-1.0 C -2.5,1.7600000 -4.7400000,4.0 -7.5,4.0 C -10.260000,4.0 -12.5,1.7600000 -12.5,-1.0 C -12.5,-3.7600000 -10.260000,-6.0 -7.5,-6.0 C -4.7400000,-6.0 -2.5,-3.7600000 -2.5,-1.0 z" transform="scale(0.8) translate(7.4, 1)" style="fill-rule:evenodd;stroke:#000;stroke-width:1pt"/></marker></defs><metadata id="metadata7"/><g id="layer1" transform="translate(0,-1034.3622)"><path style="color:#000;fill:none;stroke:#c8c8c8;stroke-width:2.33333324999999991;stroke-linecap:round;stroke-linejoin:round;stroke-miterlimit:4;stroke-opacity:.78431374;stroke-dashoffset:0;marker:none;visibility:visible;display:inline;overflow:visible;enable-background:accumulate;opacity:1" id="rect3018" d="m 27.032,1037.5288 -11.198667,0 0,5.8334 0,5.8333 -11.6666665,0"/><path style="color:#000;fill:none;stroke:#c8c8c8;stroke-width:2.33333324999999991;stroke-linecap:round;stroke-linejoin:round;stroke-miterlimit:4;stroke-opacity:.78431374;stroke-dashoffset:0;marker:none;visibility:visible;display:inline;overflow:visible;enable-background:accumulate" id="rect3018-0" d="m 88,1049.3622 0,-6 0,-6 24,0 0,6 0,6"/><path style="font-size:medium;font-style:normal;font-variant:normal;font-weight:400;font-stretch:normal;text-indent:0;text-align:start;text-decoration:none;line-height:normal;letter-spacing:normal;word-spacing:normal;text-transform:none;direction:ltr;block-progression:tb;writing-mode:lr-tb;text-anchor:start;baseline-shift:baseline;color:#000;fill:#c8c8c8;fill-opacity:.78431374;stroke:none;stroke-width:2.33299994000000011;marker:none;visibility:visible;display:inline;overflow:visible;enable-background:accumulate;font-family:Sans;-inkscape-font-specification:Sans" id="rect3018-2" d="m 98.84375,1038.3622 0,11.0128 c -0.08815,0.6568 0.493531,1.3218 1.15625,1.3218 0.66272,0 1.2444,-0.665 1.15625,-1.3218 l 0,-11.0128 z"/><path style="color:#000;fill:none;stroke:#c8c8c8;stroke-width:2.33333324999999991;stroke-linecap:round;stroke-linejoin:round;stroke-miterlimit:4;stroke-opacity:.78431374;stroke-dashoffset:0;marker:none;visibility:visible;display:inline;overflow:visible;enable-background:accumulate" id="rect3018-4" d="m 195.83334,1049.1955 -15.83334,0 0,-5.8333 0,-5.8334 15.83334,0"/><path style="fill:none;stroke:#c8c8c8;stroke-width:2;stroke-linecap:round;stroke-linejoin:miter;stroke-miterlimit:4;stroke-opacity:.78431374;stroke-dasharray:none" id="path3824" d="m 115,9 60,0" transform="translate(0,1034.3622)"/><path style="fill:none;stroke:#c8c8c8;stroke-width:2;stroke-linecap:round;stroke-linejoin:miter;stroke-miterlimit:4;stroke-opacity:.78431374;stroke-dasharray:none" id="path3826" d="M 85,9 30,9" transform="translate(0,1034.3622)"/><text style="font-size:6px;font-style:normal;font-variant:normal;font-weight:700;font-stretch:normal;line-height:125%;letter-spacing:0;word-spacing:0;fill:#000;fill-opacity:1;stroke:none;font-family:OCRABold;-inkscape-font-specification:OCRABold Bold" id="text3765" x="61.964" y="-25.75" transform="translate(0,1034.3622)" xml:space="preserve"><tspan id="tspan3767" x="61.964" y="-25.75">color stroke/fill:</tspan><tspan id="tspan3769" x="61.964" y="-18.25">c8c8c8c8 or 2f2f2fc8</tspan></text></g></svg>